<svg width="1080" height="1081" viewBox="0 0 1080 1081" fill="none" xmlns="http://www.w3.org/2000/svg">
<path d="M0 140.24C205.787 140.24 368.607 162.644 539.999 71.4627C711.389 -19.7182 878.083 2.68446 1080 2.68446V238.496C878.083 238.496 710.449 216.584 539.999 307.273C369.547 397.963 205.787 376.051 0 376.051V140.24Z" fill="#FAFAFA"/>
<path d="M1080 940.263C874.212 940.263 711.393 917.861 540.001 1009.04C368.611 1100.22 201.915 1077.82 0.0020752 1077.82V842.009C201.915 842.009 369.549 863.919 540.001 773.23C710.453 682.542 874.212 704.452 1080 704.452V940.263Z" fill="#FAFAFA"/>
<path d="M852.63 351.359C743.688 353.594 643.067 367.264 540.001 422.098C397.978 497.662 257.909 495.053 98.339 492.081C66.3999 491.486 33.6782 490.877 0.0020752 490.877V726.688C34.0811 726.688 67.1572 727.327 99.4211 727.948C258.318 731.013 397.538 733.699 540.001 657.909C643.55 602.822 743.973 589.193 852.63 587.036V351.359Z" fill="#FAFAFA"/>
</svg>
