<svg width="797" height="244" viewBox="0 0 797 244" fill="none" xmlns="http://www.w3.org/2000/svg">
<path d="M174.44 130.008C174.44 132.568 174.269 134.872 173.928 136.92H122.088C122.514 142.04 124.306 146.051 127.464 148.952C130.621 151.853 134.504 153.304 139.112 153.304C145.768 153.304 150.504 150.445 153.32 144.728H172.648C170.6 151.555 166.674 157.187 160.872 161.624C155.069 165.976 147.944 168.152 139.496 168.152C132.669 168.152 126.525 166.659 121.064 163.672C115.688 160.6 111.464 156.291 108.392 150.744C105.405 145.197 103.911 138.797 103.911 131.544C103.911 124.205 105.405 117.763 108.392 112.216C111.378 106.669 115.56 102.403 120.936 99.416C126.312 96.4293 132.498 94.936 139.496 94.936C146.237 94.936 152.253 96.3867 157.544 99.288C162.92 102.189 167.058 106.328 169.96 111.704C172.946 116.995 174.44 123.096 174.44 130.008ZM155.88 124.888C155.794 120.28 154.13 116.611 150.888 113.88C147.645 111.064 143.677 109.656 138.984 109.656C134.546 109.656 130.792 111.021 127.72 113.752C124.733 116.397 122.898 120.109 122.216 124.888H155.88ZM217.088 150.488L235.008 96.088H254.08L227.84 167H206.08L179.968 96.088H199.168L217.088 150.488ZM273.233 87.64C270.075 87.64 267.43 86.6587 265.297 84.696C263.249 82.648 262.225 80.1307 262.225 77.144C262.225 74.1573 263.249 71.6827 265.297 69.72C267.43 67.672 270.075 66.648 273.233 66.648C276.39 66.648 278.993 67.672 281.041 69.72C283.174 71.6827 284.241 74.1573 284.241 77.144C284.241 80.1307 283.174 82.648 281.041 84.696C278.993 86.6587 276.39 87.64 273.233 87.64ZM282.065 96.088V167H264.145V96.088H282.065ZM295.161 131.288C295.161 124.12 296.569 117.763 299.385 112.216C302.287 106.669 306.212 102.403 311.162 99.416C316.111 96.4293 321.615 94.936 327.674 94.936C332.282 94.936 336.676 95.96 340.858 98.008C345.039 99.9707 348.367 102.616 350.842 105.944V72.28H369.018V167H350.842V156.504C348.623 160.003 345.508 162.819 341.498 164.952C337.487 167.085 332.836 168.152 327.546 168.152C321.572 168.152 316.111 166.616 311.162 163.544C306.212 160.472 302.287 156.163 299.385 150.616C296.569 144.984 295.161 138.541 295.161 131.288ZM350.97 131.544C350.97 127.192 350.116 123.48 348.41 120.408C346.703 117.251 344.399 114.861 341.498 113.24C338.596 111.533 335.482 110.68 332.154 110.68C328.826 110.68 325.754 111.491 322.938 113.112C320.122 114.733 317.818 117.123 316.026 120.28C314.319 123.352 313.466 127.021 313.466 131.288C313.466 135.555 314.319 139.309 316.026 142.552C317.818 145.709 320.122 148.141 322.938 149.848C325.839 151.555 328.911 152.408 332.154 152.408C335.482 152.408 338.596 151.597 341.498 149.976C344.399 148.269 346.703 145.88 348.41 142.808C350.116 139.651 350.97 135.896 350.97 131.544ZM452.44 130.008C452.44 132.568 452.269 134.872 451.928 136.92H400.088C400.514 142.04 402.306 146.051 405.464 148.952C408.621 151.853 412.504 153.304 417.112 153.304C423.768 153.304 428.504 150.445 431.32 144.728H450.648C448.6 151.555 444.674 157.187 438.872 161.624C433.069 165.976 425.944 168.152 417.496 168.152C410.669 168.152 404.525 166.659 399.064 163.672C393.688 160.6 389.464 156.291 386.392 150.744C383.405 145.197 381.911 138.797 381.911 131.544C381.911 124.205 383.405 117.763 386.392 112.216C389.378 106.669 393.56 102.403 398.936 99.416C404.312 96.4293 410.498 94.936 417.496 94.936C424.237 94.936 430.253 96.3867 435.544 99.288C440.92 102.189 445.058 106.328 447.96 111.704C450.946 116.995 452.44 123.096 452.44 130.008ZM433.88 124.888C433.794 120.28 432.13 116.611 428.888 113.88C425.645 111.064 421.677 109.656 416.984 109.656C412.546 109.656 408.792 111.021 405.72 113.752C402.733 116.397 400.898 120.109 400.216 124.888H433.88ZM504.816 95.064C513.264 95.064 520.09 97.752 525.296 103.128C530.501 108.419 533.104 115.843 533.104 125.4V167H515.184V127.832C515.184 122.2 513.776 117.891 510.96 114.904C508.144 111.832 504.304 110.296 499.44 110.296C494.49 110.296 490.565 111.832 487.664 114.904C484.848 117.891 483.44 122.2 483.44 127.832V167H465.52V96.088H483.44V104.92C485.829 101.848 488.858 99.4587 492.528 97.752C496.282 95.96 500.378 95.064 504.816 95.064ZM545.536 131.544C545.536 124.205 547.03 117.805 550.017 112.344C553.003 106.797 557.142 102.531 562.433 99.544C567.723 96.472 573.782 94.936 580.609 94.936C589.398 94.936 596.651 97.1547 602.369 101.592C608.171 105.944 612.054 112.088 614.017 120.024H594.689C593.665 116.952 591.915 114.563 589.441 112.856C587.051 111.064 584.065 110.168 580.481 110.168C575.361 110.168 571.307 112.045 568.321 115.8C565.334 119.469 563.841 124.717 563.841 131.544C563.841 138.285 565.334 143.533 568.321 147.288C571.307 150.957 575.361 152.792 580.481 152.792C587.734 152.792 592.47 149.549 594.689 143.064H614.017C612.054 150.744 608.171 156.845 602.369 161.368C596.566 165.891 589.313 168.152 580.609 168.152C573.782 168.152 567.723 166.659 562.433 163.672C557.142 160.6 553.003 156.333 550.017 150.872C547.03 145.325 545.536 138.883 545.536 131.544ZM693.065 130.008C693.065 132.568 692.894 134.872 692.553 136.92H640.713C641.139 142.04 642.931 146.051 646.089 148.952C649.246 151.853 653.129 153.304 657.737 153.304C664.393 153.304 669.129 150.445 671.945 144.728H691.273C689.225 151.555 685.299 157.187 679.497 161.624C673.694 165.976 666.569 168.152 658.121 168.152C651.294 168.152 645.15 166.659 639.689 163.672C634.313 160.6 630.089 156.291 627.017 150.744C624.03 145.197 622.536 138.797 622.536 131.544C622.536 124.205 624.03 117.763 627.017 112.216C630.003 106.669 634.185 102.403 639.561 99.416C644.937 96.4293 651.123 94.936 658.121 94.936C664.862 94.936 670.878 96.3867 676.169 99.288C681.545 102.189 685.683 106.328 688.585 111.704C691.571 116.995 693.065 123.096 693.065 130.008ZM674.505 124.888C674.419 120.28 672.755 116.611 669.513 113.88C666.27 111.064 662.302 109.656 657.609 109.656C653.171 109.656 649.417 111.021 646.345 113.752C643.358 116.397 641.523 120.109 640.841 124.888H674.505Z" fill="white"/>
<rect x="709" y="41" width="8" height="153" fill="white"/>
</svg>
