<svg width="797" height="244" viewBox="0 0 797 244" fill="none" xmlns="http://www.w3.org/2000/svg">
<path d="M174.44 130.008C174.44 132.568 174.269 134.872 173.928 136.92H122.088C122.514 142.04 124.306 146.051 127.464 148.952C130.621 151.853 134.504 153.304 139.112 153.304C145.768 153.304 150.504 150.445 153.32 144.728H172.648C170.6 151.555 166.674 157.187 160.872 161.624C155.069 165.976 147.944 168.152 139.496 168.152C132.669 168.152 126.525 166.659 121.064 163.672C115.688 160.6 111.464 156.291 108.392 150.744C105.405 145.197 103.911 138.797 103.911 131.544C103.911 124.205 105.405 117.763 108.392 112.216C111.378 106.669 115.56 102.403 120.936 99.416C126.312 96.4293 132.498 94.936 139.496 94.936C146.237 94.936 152.253 96.3867 157.544 99.288C162.92 102.189 167.058 106.328 169.96 111.704C172.946 116.995 174.44 123.096 174.44 130.008ZM155.88 124.888C155.794 120.28 154.13 116.611 150.888 113.88C147.645 111.064 143.677 109.656 138.984 109.656C134.546 109.656 130.792 111.021 127.72 113.752C124.733 116.397 122.898 120.109 122.216 124.888H155.88ZM217.088 150.488L235.008 96.088H254.08L227.84 167H206.08L179.968 96.088H199.168L217.088 150.488ZM273.233 87.64C270.075 87.64 267.43 86.6587 265.297 84.696C263.249 82.648 262.225 80.1307 262.225 77.144C262.225 74.1573 263.249 71.6827 265.297 69.72C267.43 67.672 270.075 66.648 273.233 66.648C276.39 66.648 278.993 67.672 281.041 69.72C283.174 71.6827 284.241 74.1573 284.241 77.144C284.241 80.1307 283.174 82.648 281.041 84.696C278.993 86.6587 276.39 87.64 273.233 87.64ZM282.065 96.088V167H264.145V96.088H282.065ZM295.161 131.288C295.161 124.12 296.569 117.763 299.385 112.216C302.287 106.669 306.212 102.403 311.162 99.416C316.111 96.4293 321.615 94.936 327.674 94.936C332.282 94.936 336.676 95.96 340.858 98.008C345.039 99.9707 348.367 102.616 350.842 105.944V72.28H369.018V167H350.842V156.504C348.623 160.003 345.508 162.819 341.498 164.952C337.487 167.085 332.836 168.152 327.546 168.152C321.572 168.152 316.111 166.616 311.162 163.544C306.212 160.472 302.287 156.163 299.385 150.616C296.569 144.984 295.161 138.541 295.161 131.288ZM350.97 131.544C350.97 127.192 350.116 123.48 348.41 120.408C346.703 117.251 344.399 114.861 341.498 113.24C338.596 111.533 335.482 110.68 332.154 110.68C328.826 110.68 325.754 111.491 322.938 113.112C320.122 114.733 317.818 117.123 316.026 120.28C314.319 123.352 313.466 127.021 313.466 131.288C313.466 135.555 314.319 139.309 316.026 142.552C317.818 145.709 320.122 148.141 322.938 149.848C325.839 151.555 328.911 152.408 332.154 152.408C335.482 152.408 338.596 151.597 341.498 149.976C344.399 148.269 346.703 145.88 348.41 142.808C350.116 139.651 350.97 135.896 350.97 131.544ZM452.44 130.008C452.44 132.568 452.269 134.872 451.928 136.92H400.088C400.514 142.04 402.306 146.051 405.464 148.952C408.621 151.853 412.504 153.304 417.112 153.304C423.768 153.304 428.504 150.445 431.32 144.728H450.648C448.6 151.555 444.674 157.187 438.872 161.624C433.069 165.976 425.944 168.152 417.496 168.152C410.669 168.152 404.525 166.659 399.064 163.672C393.688 160.6 389.464 156.291 386.392 150.744C383.405 145.197 381.911 138.797 381.911 131.544C381.911 124.205 383.405 117.763 386.392 112.216C389.378 106.669 393.56 102.403 398.936 99.416C404.312 96.4293 410.498 94.936 417.496 94.936C424.237 94.936 430.253 96.3867 435.544 99.288C440.92 102.189 445.058 106.328 447.96 111.704C450.946 116.995 452.44 123.096 452.44 130.008ZM433.88 124.888C433.794 120.28 432.13 116.611 428.888 113.88C425.645 111.064 421.677 109.656 416.984 109.656C412.546 109.656 408.792 111.021 405.72 113.752C402.733 116.397 400.898 120.109 400.216 124.888H433.88ZM504.816 95.064C513.264 95.064 520.09 97.752 525.296 103.128C530.501 108.419 533.104 115.843 533.104 125.4V167H515.184V127.832C515.184 122.2 513.776 117.891 510.96 114.904C508.144 111.832 504.304 110.296 499.44 110.296C494.49 110.296 490.565 111.832 487.664 114.904C484.848 117.891 483.44 122.2 483.44 127.832V167H465.52V96.088H483.44V104.92C485.829 101.848 488.858 99.4587 492.528 97.752C496.282 95.96 500.378 95.064 504.816 95.064ZM545.536 131.544C545.536 124.205 547.03 117.805 550.017 112.344C553.003 106.797 557.142 102.531 562.433 99.544C567.723 96.472 573.782 94.936 580.609 94.936C589.398 94.936 596.651 97.1547 602.369 101.592C608.171 105.944 612.054 112.088 614.017 120.024H594.689C593.665 116.952 591.915 114.563 589.441 112.856C587.051 111.064 584.065 110.168 580.481 110.168C575.361 110.168 571.307 112.045 568.321 115.8C565.334 119.469 563.841 124.717 563.841 131.544C563.841 138.285 565.334 143.533 568.321 147.288C571.307 150.957 575.361 152.792 580.481 152.792C587.734 152.792 592.47 149.549 594.689 143.064H614.017C612.054 150.744 608.171 156.845 602.369 161.368C596.566 165.891 589.313 168.152 580.609 168.152C573.782 168.152 567.723 166.659 562.433 163.672C557.142 160.6 553.003 156.333 550.017 150.872C547.03 145.325 545.536 138.883 545.536 131.544ZM693.065 130.008C693.065 132.568 692.894 134.872 692.553 136.92H640.713C641.139 142.04 642.931 146.051 646.089 148.952C649.246 151.853 653.129 153.304 657.737 153.304C664.393 153.304 669.129 150.445 671.945 144.728H691.273C689.225 151.555 685.299 157.187 679.497 161.624C673.694 165.976 666.569 168.152 658.121 168.152C651.294 168.152 645.15 166.659 639.689 163.672C634.313 160.6 630.089 156.291 627.017 150.744C624.03 145.197 622.536 138.797 622.536 131.544C622.536 124.205 624.03 117.763 627.017 112.216C630.003 106.669 634.185 102.403 639.561 99.416C644.937 96.4293 651.123 94.936 658.121 94.936C664.862 94.936 670.878 96.3867 676.169 99.288C681.545 102.189 685.683 106.328 688.585 111.704C691.571 116.995 693.065 123.096 693.065 130.008ZM674.505 124.888C674.419 120.28 672.755 116.611 669.513 113.88C666.27 111.064 662.302 109.656 657.609 109.656C653.171 109.656 649.417 111.021 646.345 113.752C643.358 116.397 641.523 120.109 640.841 124.888H674.505Z" fill="black"/>
<path d="M173.928 136.92V137.92H174.775L174.914 137.084L173.928 136.92ZM122.088 136.92V135.92H121.001L121.091 137.003L122.088 136.92ZM127.464 148.952L126.787 149.688L126.787 149.688L127.464 148.952ZM153.32 144.728V143.728H152.697L152.422 144.286L153.32 144.728ZM172.648 144.728L173.605 145.015L173.992 143.728H172.648V144.728ZM160.872 161.624L161.472 162.424L161.479 162.418L160.872 161.624ZM121.064 163.672L120.567 164.54L120.575 164.545L120.584 164.549L121.064 163.672ZM108.392 150.744L107.511 151.218L107.517 151.228L108.392 150.744ZM108.392 112.216L107.511 111.742L107.511 111.742L108.392 112.216ZM120.936 99.416L121.421 100.29L121.421 100.29L120.936 99.416ZM157.544 99.288L157.063 100.165L157.069 100.168L157.544 99.288ZM169.96 111.704L169.079 112.179L169.084 112.187L169.089 112.196L169.96 111.704ZM155.88 124.888V125.888H156.898L156.879 124.869L155.88 124.888ZM150.888 113.88L150.232 114.635L150.238 114.64L150.243 114.645L150.888 113.88ZM127.72 113.752L128.383 114.501L128.384 114.499L127.72 113.752ZM122.216 124.888L121.226 124.747L121.062 125.888H122.216V124.888ZM173.44 130.008C173.44 132.525 173.272 134.773 172.941 136.756L174.914 137.084C175.266 134.971 175.44 132.611 175.44 130.008H173.44ZM173.928 135.92H122.088V137.92H173.928V135.92ZM121.091 137.003C121.534 142.321 123.409 146.585 126.787 149.688L128.14 148.216C125.203 145.517 123.494 141.759 123.084 136.837L121.091 137.003ZM126.787 149.688C130.143 152.773 134.273 154.304 139.112 154.304V152.304C134.734 152.304 131.098 150.934 128.14 148.216L126.787 149.688ZM139.112 154.304C142.584 154.304 145.619 153.557 148.172 152.016C150.728 150.474 152.737 148.173 154.217 145.17L152.422 144.286C151.086 147 149.319 148.988 147.139 150.304C144.956 151.622 142.295 152.304 139.112 152.304V154.304ZM153.32 145.728H172.648V143.728H153.32V145.728ZM171.69 144.441C169.704 151.06 165.904 156.517 160.264 160.83L161.479 162.418C167.444 157.857 171.495 152.049 173.605 145.015L171.69 144.441ZM160.272 160.824C154.669 165.026 147.764 167.152 139.496 167.152V169.152C148.123 169.152 155.468 166.926 161.472 162.424L160.272 160.824ZM139.496 167.152C132.82 167.152 126.844 165.693 121.543 162.795L120.584 164.549C126.206 167.624 132.518 169.152 139.496 169.152V167.152ZM121.56 162.804C116.347 159.825 112.252 155.65 109.266 150.259L107.517 151.228C110.675 156.931 115.028 161.375 120.567 164.54L121.56 162.804ZM109.272 150.27C106.375 144.89 104.911 138.657 104.911 131.544H102.911C102.911 138.938 104.435 145.505 107.511 151.218L109.272 150.27ZM104.911 131.544C104.911 124.343 106.376 118.069 109.272 112.69L107.511 111.742C104.434 117.457 102.911 124.067 102.911 131.544H104.911ZM109.272 112.69C112.17 107.307 116.217 103.182 121.421 100.29L120.45 98.5418C114.902 101.624 110.586 106.031 107.511 111.742L109.272 112.69ZM121.421 100.29C126.629 97.3968 132.644 95.936 139.496 95.936V93.936C132.352 93.936 125.994 95.4618 120.45 98.5418L121.421 100.29ZM139.496 95.936C146.089 95.936 151.936 97.3534 157.063 100.165L158.024 98.4112C152.57 95.4199 146.385 93.936 139.496 93.936V95.936ZM157.069 100.168C162.273 102.977 166.271 106.975 169.079 112.179L170.84 111.229C167.846 105.681 163.566 101.402 158.018 98.408L157.069 100.168ZM169.089 112.196C171.98 117.317 173.44 123.244 173.44 130.008H175.44C175.44 122.948 173.913 116.673 170.83 111.212L169.089 112.196ZM156.879 124.869C156.789 120.001 155.016 116.049 151.532 113.115L150.243 114.645C153.245 117.172 154.799 120.559 154.88 124.907L156.879 124.869ZM151.543 113.125C148.101 110.136 143.894 108.656 138.984 108.656V110.656C143.46 110.656 147.188 111.992 150.232 114.635L151.543 113.125ZM138.984 108.656C134.322 108.656 130.325 110.098 127.055 113.005L128.384 114.499C131.258 111.945 134.77 110.656 138.984 110.656V108.656ZM127.056 113.003C123.857 115.837 121.934 119.785 121.226 124.747L123.205 125.029C123.862 120.434 125.609 116.957 128.383 114.501L127.056 113.003ZM122.216 125.888H155.88V123.888H122.216V125.888ZM217.088 150.488L216.138 150.801L217.088 153.684L218.037 150.801L217.088 150.488ZM235.008 96.088V95.088H234.284L234.058 95.7751L235.008 96.088ZM254.08 96.088L255.017 96.435L255.516 95.088H254.08V96.088ZM227.84 167V168H228.536L228.777 167.347L227.84 167ZM206.08 167L205.141 167.346L205.382 168H206.08V167ZM179.968 96.088V95.088H178.534L179.029 96.4335L179.968 96.088ZM199.168 96.088L200.117 95.7751L199.891 95.088H199.168V96.088ZM218.037 150.801L235.957 96.4009L234.058 95.7751L216.138 150.175L218.037 150.801ZM235.008 97.088H254.08V95.088H235.008V97.088ZM253.142 95.741L226.902 166.653L228.777 167.347L255.017 96.435L253.142 95.741ZM227.84 166H206.08V168H227.84V166ZM207.018 166.654L180.906 95.7424L179.029 96.4335L205.141 167.346L207.018 166.654ZM179.968 97.088H199.168V95.088H179.968V97.088ZM198.218 96.4009L216.138 150.801L218.037 150.175L200.117 95.7751L198.218 96.4009ZM265.297 84.696L264.589 85.4031L264.604 85.4178L264.619 85.4319L265.297 84.696ZM265.297 69.72L265.988 70.442L265.989 70.4414L265.297 69.72ZM281.041 69.72L280.333 70.4271L280.348 70.4418L280.363 70.4559L281.041 69.72ZM281.041 84.696L281.732 85.418L281.733 85.4174L281.041 84.696ZM282.065 96.088H283.065V95.088H282.065V96.088ZM282.065 167V168H283.065V167H282.065ZM264.145 167H263.145V168H264.145V167ZM264.145 96.088V95.088H263.145V96.088H264.145ZM273.233 86.64C270.302 86.64 267.905 85.7371 265.974 83.9601L264.619 85.4319C266.955 87.5802 269.849 88.64 273.233 88.64V86.64ZM266.004 83.9889C264.15 82.1349 263.225 79.8747 263.225 77.144H261.225C261.225 80.3866 262.347 83.1611 264.589 85.4031L266.004 83.9889ZM263.225 77.144C263.225 74.4138 264.149 72.2052 265.988 70.442L264.605 68.998C262.348 71.1602 261.225 73.9009 261.225 77.144H263.225ZM265.989 70.4414C267.923 68.585 270.314 67.648 273.233 67.648V65.648C269.836 65.648 266.937 66.7589 264.604 68.9986L265.989 70.4414ZM273.233 67.648C276.151 67.648 278.491 68.5845 280.333 70.4271L281.748 69.0129C279.494 66.7595 276.629 65.648 273.233 65.648V67.648ZM280.363 70.4559C282.284 72.2228 283.241 74.4274 283.241 77.144H285.241C285.241 73.8873 284.064 71.1425 281.718 68.9841L280.363 70.4559ZM283.241 77.144C283.241 79.8614 282.283 82.1173 280.348 83.9746L281.733 85.4174C284.065 83.1787 285.241 80.3999 285.241 77.144H283.241ZM280.349 83.974C278.508 85.7375 276.164 86.64 273.233 86.64V88.64C276.616 88.64 279.477 87.5799 281.732 85.418L280.349 83.974ZM281.065 96.088V167H283.065V96.088H281.065ZM282.065 166H264.145V168H282.065V166ZM265.145 167V96.088H263.145V167H265.145ZM264.145 97.088H282.065V95.088H264.145V97.088ZM299.385 112.216L298.499 111.752L298.494 111.763L299.385 112.216ZM311.162 99.416L311.678 100.272L311.678 100.272L311.162 99.416ZM340.858 98.008L340.418 98.9061L340.425 98.9097L340.433 98.9132L340.858 98.008ZM350.842 105.944L350.039 106.541L351.842 108.965V105.944H350.842ZM350.842 72.28V71.28H349.842V72.28H350.842ZM369.018 72.28H370.018V71.28H369.018V72.28ZM369.018 167V168H370.018V167H369.018ZM350.842 167H349.842V168H350.842V167ZM350.842 156.504H351.842V153.06L349.997 155.968L350.842 156.504ZM341.498 164.952L341.028 164.069L341.028 164.069L341.498 164.952ZM311.162 163.544L311.689 162.694L311.689 162.694L311.162 163.544ZM299.385 150.616L298.491 151.063L298.495 151.071L298.499 151.079L299.385 150.616ZM348.41 120.408L347.53 120.884L347.535 120.894L348.41 120.408ZM341.498 113.24L340.99 114.102L341 114.108L341.01 114.113L341.498 113.24ZM322.938 113.112L322.439 112.245L322.439 112.245L322.938 113.112ZM316.026 120.28L315.156 119.786L315.151 119.794L316.026 120.28ZM316.026 142.552L315.141 143.018L315.148 143.032L315.156 143.046L316.026 142.552ZM322.938 149.848L322.419 150.703L322.43 150.71L322.938 149.848ZM341.498 149.976L341.985 150.849L341.995 150.844L342.005 150.838L341.498 149.976ZM348.41 142.808L349.284 143.294L349.289 143.284L348.41 142.808ZM296.161 131.288C296.161 124.253 297.543 118.055 300.277 112.669L298.494 111.763C295.596 117.47 294.161 123.987 294.161 131.288H296.161ZM300.272 112.679C303.095 107.281 306.899 103.156 311.678 100.272L310.645 98.5598C305.526 101.649 301.478 106.058 298.499 111.752L300.272 112.679ZM311.678 100.272C316.464 97.3842 321.788 95.936 327.674 95.936V93.936C321.442 93.936 315.758 95.4744 310.645 98.5598L311.678 100.272ZM327.674 95.936C332.127 95.936 336.372 96.9244 340.418 98.9061L341.297 97.1099C336.981 94.9956 332.436 93.936 327.674 93.936V95.936ZM340.433 98.9132C344.482 100.814 347.674 103.36 350.039 106.541L351.644 105.347C349.06 101.872 345.596 99.1274 341.282 97.1028L340.433 98.9132ZM351.842 105.944V72.28H349.842V105.944H351.842ZM350.842 73.28H369.018V71.28H350.842V73.28ZM368.018 72.28V167H370.018V72.28H368.018ZM369.018 166H350.842V168H369.018V166ZM351.842 167V156.504H349.842V167H351.842ZM349.997 155.968C347.88 159.307 344.901 162.009 341.028 164.069L341.967 165.835C346.116 163.628 349.366 160.698 351.686 157.04L349.997 155.968ZM341.028 164.069C337.184 166.114 332.699 167.152 327.546 167.152V169.152C332.973 169.152 337.79 168.057 341.967 165.835L341.028 164.069ZM327.546 167.152C321.754 167.152 316.476 165.665 311.689 162.694L310.634 164.394C315.746 167.567 321.391 169.152 327.546 169.152V167.152ZM311.689 162.694C306.903 159.724 303.096 155.553 300.272 150.153L298.499 151.079C301.477 156.772 305.522 161.22 310.634 164.394L311.689 162.694ZM300.28 150.169C297.543 144.695 296.161 138.41 296.161 131.288H294.161C294.161 138.673 295.596 145.273 298.491 151.063L300.28 150.169ZM351.97 131.544C351.97 127.062 351.09 123.174 349.284 119.922L347.535 120.894C349.142 123.786 349.97 127.322 349.97 131.544H351.97ZM349.289 119.932C347.5 116.622 345.066 114.088 341.985 112.367L341.01 114.113C343.732 115.634 345.906 117.879 347.53 120.884L349.289 119.932ZM342.005 112.378C338.951 110.582 335.662 109.68 332.154 109.68V111.68C335.301 111.68 338.241 112.485 340.99 114.102L342.005 112.378ZM332.154 109.68C328.655 109.68 325.41 110.534 322.439 112.245L323.436 113.979C326.097 112.447 328.996 111.68 332.154 111.68V109.68ZM322.439 112.245C319.45 113.966 317.025 116.493 315.156 119.786L316.895 120.774C318.61 117.753 320.793 115.501 323.436 113.979L322.439 112.245ZM315.151 119.794C313.346 123.044 312.466 126.888 312.466 131.288H314.466C314.466 127.155 315.291 123.66 316.9 120.766L315.151 119.794ZM312.466 131.288C312.466 135.69 313.347 139.61 315.141 143.018L316.91 142.086C315.291 139.009 314.466 135.419 314.466 131.288H312.466ZM315.156 143.046C317.023 146.336 319.443 148.899 322.419 150.703L323.456 148.993C320.8 147.384 318.612 145.083 316.895 142.058L315.156 143.046ZM322.43 150.71C325.479 152.503 328.726 153.408 332.154 153.408V151.408C329.096 151.408 326.198 150.606 323.445 148.986L322.43 150.71ZM332.154 153.408C335.652 153.408 338.935 152.554 341.985 150.849L341.01 149.103C338.258 150.641 335.311 151.408 332.154 151.408V153.408ZM342.005 150.838C345.067 149.037 347.494 146.514 349.284 143.294L347.535 142.322C345.911 145.246 343.731 147.502 340.99 149.114L342.005 150.838ZM349.289 143.284C351.09 139.952 351.97 136.027 351.97 131.544H349.97C349.97 135.765 349.142 139.349 347.53 142.332L349.289 143.284ZM451.928 136.92V137.92H452.775L452.914 137.084L451.928 136.92ZM400.088 136.92V135.92H399.001L399.091 137.003L400.088 136.92ZM405.464 148.952L404.787 149.688L404.787 149.688L405.464 148.952ZM431.32 144.728V143.728H430.697L430.422 144.286L431.32 144.728ZM450.648 144.728L451.605 145.015L451.992 143.728H450.648V144.728ZM438.872 161.624L439.472 162.424L439.479 162.418L438.872 161.624ZM399.064 163.672L398.567 164.54L398.575 164.545L398.584 164.549L399.064 163.672ZM386.392 150.744L385.511 151.218L385.517 151.228L386.392 150.744ZM386.392 112.216L385.511 111.742L385.511 111.742L386.392 112.216ZM398.936 99.416L399.421 100.29L399.421 100.29L398.936 99.416ZM435.544 99.288L435.063 100.165L435.069 100.168L435.544 99.288ZM447.96 111.704L447.079 112.179L447.084 112.187L447.089 112.196L447.96 111.704ZM433.88 124.888V125.888H434.898L434.879 124.869L433.88 124.888ZM428.888 113.88L428.232 114.635L428.238 114.64L428.243 114.645L428.888 113.88ZM405.72 113.752L406.383 114.501L406.384 114.499L405.72 113.752ZM400.216 124.888L399.226 124.747L399.062 125.888H400.216V124.888ZM451.44 130.008C451.44 132.525 451.272 134.773 450.941 136.756L452.914 137.084C453.266 134.971 453.44 132.611 453.44 130.008H451.44ZM451.928 135.92H400.088V137.92H451.928V135.92ZM399.091 137.003C399.534 142.321 401.409 146.585 404.787 149.688L406.14 148.216C403.203 145.517 401.494 141.759 401.084 136.837L399.091 137.003ZM404.787 149.688C408.143 152.773 412.273 154.304 417.112 154.304V152.304C412.734 152.304 409.098 150.934 406.14 148.216L404.787 149.688ZM417.112 154.304C420.584 154.304 423.619 153.557 426.172 152.016C428.728 150.474 430.737 148.173 432.217 145.17L430.422 144.286C429.086 147 427.319 148.988 425.139 150.304C422.956 151.622 420.295 152.304 417.112 152.304V154.304ZM431.32 145.728H450.648V143.728H431.32V145.728ZM449.69 144.441C447.704 151.06 443.904 156.517 438.264 160.83L439.479 162.418C445.444 157.857 449.495 152.049 451.605 145.015L449.69 144.441ZM438.272 160.824C432.669 165.026 425.764 167.152 417.496 167.152V169.152C426.123 169.152 433.468 166.926 439.472 162.424L438.272 160.824ZM417.496 167.152C410.82 167.152 404.844 165.693 399.543 162.795L398.584 164.549C404.206 167.624 410.518 169.152 417.496 169.152V167.152ZM399.56 162.804C394.347 159.825 390.252 155.65 387.266 150.259L385.517 151.228C388.675 156.931 393.028 161.375 398.567 164.54L399.56 162.804ZM387.272 150.27C384.375 144.89 382.911 138.657 382.911 131.544H380.911C380.911 138.938 382.435 145.505 385.511 151.218L387.272 150.27ZM382.911 131.544C382.911 124.343 384.376 118.069 387.272 112.69L385.511 111.742C382.434 117.457 380.911 124.067 380.911 131.544H382.911ZM387.272 112.69C390.17 107.307 394.217 103.182 399.421 100.29L398.45 98.5418C392.902 101.624 388.586 106.031 385.511 111.742L387.272 112.69ZM399.421 100.29C404.629 97.3968 410.644 95.936 417.496 95.936V93.936C410.352 93.936 403.994 95.4618 398.45 98.5418L399.421 100.29ZM417.496 95.936C424.089 95.936 429.936 97.3534 435.063 100.165L436.024 98.4112C430.57 95.4199 424.385 93.936 417.496 93.936V95.936ZM435.069 100.168C440.273 102.977 444.271 106.975 447.079 112.179L448.84 111.229C445.846 105.681 441.566 101.402 436.018 98.408L435.069 100.168ZM447.089 112.196C449.98 117.317 451.44 123.244 451.44 130.008H453.44C453.44 122.948 451.913 116.673 448.83 111.212L447.089 112.196ZM434.879 124.869C434.789 120.001 433.016 116.049 429.532 113.115L428.243 114.645C431.245 117.172 432.799 120.559 432.88 124.907L434.879 124.869ZM429.543 113.125C426.101 110.136 421.894 108.656 416.984 108.656V110.656C421.46 110.656 425.188 111.992 428.232 114.635L429.543 113.125ZM416.984 108.656C412.322 108.656 408.325 110.098 405.055 113.005L406.384 114.499C409.258 111.945 412.77 110.656 416.984 110.656V108.656ZM405.056 113.003C401.857 115.837 399.934 119.785 399.226 124.747L401.205 125.029C401.862 120.434 403.609 116.957 406.383 114.501L405.056 113.003ZM400.216 125.888H433.88V123.888H400.216V125.888ZM525.296 103.128L524.577 103.824L524.583 103.829L525.296 103.128ZM533.104 167V168H534.104V167H533.104ZM515.184 167H514.184V168H515.184V167ZM510.96 114.904L510.222 115.58L510.232 115.59L510.96 114.904ZM487.664 114.904L486.936 114.217L486.936 114.218L487.664 114.904ZM483.44 167V168H484.44V167H483.44ZM465.52 167H464.52V168H465.52V167ZM465.52 96.088V95.088H464.52V96.088H465.52ZM483.44 96.088H484.44V95.088H483.44V96.088ZM483.44 104.92H482.44V107.835L484.229 105.534L483.44 104.92ZM492.528 97.752L492.949 98.6588L492.958 98.6545L492.528 97.752ZM504.816 96.064C513.031 96.064 519.585 98.668 524.577 103.824L526.014 102.432C520.595 96.836 513.496 94.064 504.816 94.064V96.064ZM524.583 103.829C529.555 108.883 532.104 116.026 532.104 125.4H534.104C534.104 115.659 531.446 107.954 526.008 102.427L524.583 103.829ZM532.104 125.4V167H534.104V125.4H532.104ZM533.104 166H515.184V168H533.104V166ZM516.184 167V127.832H514.184V167H516.184ZM516.184 127.832C516.184 122.041 514.734 117.45 511.687 114.218L510.232 115.59C512.817 118.331 514.184 122.359 514.184 127.832H516.184ZM511.697 114.228C508.659 110.915 504.533 109.296 499.44 109.296V111.296C504.074 111.296 507.628 112.749 510.222 115.58L511.697 114.228ZM499.44 109.296C494.266 109.296 490.059 110.911 486.936 114.217L488.391 115.591C491.07 112.753 494.714 111.296 499.44 111.296V109.296ZM486.936 114.218C483.889 117.45 482.44 122.041 482.44 127.832H484.44C484.44 122.359 485.806 118.331 488.391 115.59L486.936 114.218ZM482.44 127.832V167H484.44V127.832H482.44ZM483.44 166H465.52V168H483.44V166ZM466.52 167V96.088H464.52V167H466.52ZM465.52 97.088H483.44V95.088H465.52V97.088ZM482.44 96.088V104.92H484.44V96.088H482.44ZM484.229 105.534C486.517 102.592 489.418 100.301 492.949 98.6587L492.106 96.8453C488.298 98.6162 485.141 101.104 482.65 104.306L484.229 105.534ZM492.958 98.6545C496.57 96.9309 500.517 96.064 504.816 96.064V94.064C500.239 94.064 495.995 94.9891 492.097 96.8495L492.958 98.6545ZM550.017 112.344L550.894 112.824L550.897 112.818L550.017 112.344ZM562.433 99.544L562.924 100.415L562.935 100.409L562.433 99.544ZM602.369 101.592L601.755 102.382L601.762 102.387L601.769 102.392L602.369 101.592ZM614.017 120.024V121.024H615.294L614.987 119.784L614.017 120.024ZM594.689 120.024L593.74 120.34L593.968 121.024H594.689V120.024ZM589.441 112.856L588.841 113.656L588.856 113.668L588.873 113.679L589.441 112.856ZM568.321 115.8L569.096 116.431L569.103 116.423L568.321 115.8ZM568.321 147.288L567.538 147.911L567.545 147.919L568.321 147.288ZM594.689 143.064V142.064H593.974L593.742 142.74L594.689 143.064ZM614.017 143.064L614.985 143.312L615.304 142.064H614.017V143.064ZM602.369 161.368L602.983 162.157L602.983 162.157L602.369 161.368ZM562.433 163.672L561.93 164.537L561.941 164.543L562.433 163.672ZM550.017 150.872L549.136 151.346L549.139 151.352L550.017 150.872ZM546.536 131.544C546.536 124.343 548.001 118.114 550.894 112.824L549.139 111.864C546.059 117.497 544.536 124.068 544.536 131.544H546.536ZM550.897 112.818C553.798 107.431 557.804 103.305 562.924 100.415L561.941 98.6732C556.479 101.756 552.209 106.163 549.136 111.87L550.897 112.818ZM562.935 100.409C568.056 97.4353 573.937 95.936 580.609 95.936V93.936C573.626 93.936 567.391 95.5087 561.93 98.6792L562.935 100.409ZM580.609 95.936C589.225 95.936 596.249 98.108 601.755 102.382L602.982 100.802C597.054 96.2013 589.571 93.936 580.609 93.936V95.936ZM601.769 102.392C607.363 106.588 611.131 112.522 613.046 120.264L614.987 119.784C612.977 111.654 608.979 105.3 602.969 100.792L601.769 102.392ZM614.017 119.024H594.689V121.024H614.017V119.024ZM595.637 119.708C594.55 116.447 592.676 113.872 590.008 112.033L588.873 113.679C591.155 115.253 592.779 117.457 593.74 120.34L595.637 119.708ZM590.041 112.056C587.446 110.11 584.236 109.168 580.481 109.168V111.168C583.893 111.168 586.657 112.018 588.841 113.656L590.041 112.056ZM580.481 109.168C575.079 109.168 570.728 111.166 567.538 115.177L569.103 116.423C571.886 112.924 575.642 111.168 580.481 111.168V109.168ZM567.545 115.169C564.361 119.081 562.841 124.587 562.841 131.544H564.841C564.841 124.848 566.307 119.858 569.096 116.431L567.545 115.169ZM562.841 131.544C562.841 138.422 564.363 143.919 567.538 147.911L569.103 146.665C566.304 143.147 564.841 138.149 564.841 131.544H562.841ZM567.545 147.919C570.739 151.843 575.088 153.792 580.481 153.792V151.792C575.633 151.792 571.876 150.072 569.096 146.657L567.545 147.919ZM580.481 153.792C584.256 153.792 587.464 152.947 590.037 151.185C592.616 149.42 594.47 146.793 595.635 143.388L593.742 142.74C592.689 145.82 591.065 148.058 588.908 149.535C586.745 151.016 583.959 151.792 580.481 151.792V153.792ZM594.689 144.064H614.017V142.064H594.689V144.064ZM613.048 142.816C611.135 150.299 607.368 156.204 601.754 160.579L602.983 162.157C608.975 157.487 612.972 151.189 614.985 143.312L613.048 142.816ZM601.754 160.579C596.157 164.941 589.132 167.152 580.609 167.152V169.152C589.493 169.152 596.974 166.84 602.983 162.157L601.754 160.579ZM580.609 167.152C573.932 167.152 568.047 165.693 562.924 162.801L561.941 164.543C567.399 167.624 573.631 169.152 580.609 169.152V167.152ZM562.935 162.807C557.805 159.829 553.795 155.696 550.894 150.392L549.139 151.352C552.212 156.97 556.479 161.371 561.93 164.537L562.935 162.807ZM550.897 150.398C548.001 145.019 546.536 138.745 546.536 131.544H544.536C544.536 139.021 546.059 145.631 549.136 151.346L550.897 150.398ZM692.553 136.92V137.92H693.4L693.539 137.084L692.553 136.92ZM640.713 136.92V135.92H639.626L639.716 137.003L640.713 136.92ZM646.089 148.952L645.412 149.688L645.412 149.688L646.089 148.952ZM671.945 144.728V143.728H671.322L671.047 144.286L671.945 144.728ZM691.273 144.728L692.23 145.015L692.617 143.728H691.273V144.728ZM679.497 161.624L680.097 162.424L680.104 162.418L679.497 161.624ZM639.689 163.672L639.192 164.54L639.2 164.545L639.209 164.549L639.689 163.672ZM627.017 150.744L626.136 151.218L626.142 151.228L627.017 150.744ZM627.017 112.216L626.136 111.742L626.136 111.742L627.017 112.216ZM639.561 99.416L640.046 100.29L640.046 100.29L639.561 99.416ZM676.169 99.288L675.688 100.165L675.694 100.168L676.169 99.288ZM688.585 111.704L687.704 112.179L687.709 112.187L687.714 112.196L688.585 111.704ZM674.505 124.888V125.888H675.523L675.504 124.869L674.505 124.888ZM669.513 113.88L668.857 114.635L668.863 114.64L668.868 114.645L669.513 113.88ZM646.345 113.752L647.008 114.501L647.009 114.499L646.345 113.752ZM640.841 124.888L639.851 124.747L639.687 125.888H640.841V124.888ZM692.065 130.008C692.065 132.525 691.897 134.773 691.566 136.756L693.539 137.084C693.891 134.971 694.065 132.611 694.065 130.008H692.065ZM692.553 135.92H640.713V137.92H692.553V135.92ZM639.716 137.003C640.159 142.321 642.034 146.585 645.412 149.688L646.765 148.216C643.828 145.517 642.119 141.759 641.709 136.837L639.716 137.003ZM645.412 149.688C648.768 152.773 652.898 154.304 657.737 154.304V152.304C653.359 152.304 649.723 150.934 646.765 148.216L645.412 149.688ZM657.737 154.304C661.209 154.304 664.244 153.557 666.797 152.016C669.353 150.474 671.362 148.173 672.842 145.17L671.047 144.286C669.711 147 667.944 148.988 665.764 150.304C663.581 151.622 660.92 152.304 657.737 152.304V154.304ZM671.945 145.728H691.273V143.728H671.945V145.728ZM690.315 144.441C688.329 151.06 684.529 156.517 678.889 160.83L680.104 162.418C686.069 157.857 690.12 152.049 692.23 145.015L690.315 144.441ZM678.897 160.824C673.294 165.026 666.389 167.152 658.121 167.152V169.152C666.748 169.152 674.093 166.926 680.097 162.424L678.897 160.824ZM658.121 167.152C651.445 167.152 645.469 165.693 640.168 162.795L639.209 164.549C644.831 167.624 651.143 169.152 658.121 169.152V167.152ZM640.185 162.804C634.972 159.825 630.877 155.65 627.891 150.259L626.142 151.228C629.3 156.931 633.653 161.375 639.192 164.54L640.185 162.804ZM627.897 150.27C625 144.89 623.536 138.657 623.536 131.544H621.536C621.536 138.938 623.06 145.505 626.136 151.218L627.897 150.27ZM623.536 131.544C623.536 124.343 625.001 118.069 627.897 112.69L626.136 111.742C623.059 117.457 621.536 124.067 621.536 131.544H623.536ZM627.897 112.69C630.795 107.307 634.842 103.182 640.046 100.29L639.075 98.5418C633.527 101.624 629.211 106.031 626.136 111.742L627.897 112.69ZM640.046 100.29C645.254 97.3968 651.269 95.936 658.121 95.936V93.936C650.977 93.936 644.619 95.4618 639.075 98.5418L640.046 100.29ZM658.121 95.936C664.714 95.936 670.561 97.3534 675.688 100.165L676.649 98.4112C671.195 95.4199 665.01 93.936 658.121 93.936V95.936ZM675.694 100.168C680.898 102.977 684.896 106.975 687.704 112.179L689.465 111.229C686.471 105.681 682.191 101.402 676.643 98.408L675.694 100.168ZM687.714 112.196C690.605 117.317 692.065 123.244 692.065 130.008H694.065C694.065 122.948 692.538 116.673 689.455 111.212L687.714 112.196ZM675.504 124.869C675.414 120.001 673.641 116.049 670.157 113.115L668.868 114.645C671.87 117.172 673.424 120.559 673.505 124.907L675.504 124.869ZM670.168 113.125C666.726 110.136 662.519 108.656 657.609 108.656V110.656C662.085 110.656 665.813 111.992 668.857 114.635L670.168 113.125ZM657.609 108.656C652.947 108.656 648.95 110.098 645.68 113.005L647.009 114.499C649.883 111.945 653.395 110.656 657.609 110.656V108.656ZM645.681 113.003C642.482 115.837 640.559 119.785 639.851 124.747L641.83 125.029C642.487 120.434 644.234 116.957 647.008 114.501L645.681 113.003ZM640.841 125.888H674.505V123.888H640.841V125.888Z" fill="white"/>
<rect x="709" y="41" width="8" height="153" fill="black"/>
</svg>
